Coordinates
version=1
nRows=60
nColumns=12
inDegrees=yes

Units are S.I. units (second, meters, Newtons, ...)
Angles are in degrees

endheader
time	SC_y	SC_z	SC_x	AC_y	AC_z	AC_x	GH_y	GH_z	GH_yy	EL_x	PS_y
       0.0              -13.96          11.65          50.88          68.33         -12.71         -4.073           49.1          74.37         -86.85          131.7          114.4
   0.04261              -13.97          11.65          50.88          68.33         -12.71         -4.072          49.11          74.37         -86.81          131.7          114.4
   0.08522              -13.97          11.65          50.88          68.33         -12.71         -4.072          49.12          74.36         -86.77          131.7          114.4
    0.1278              -13.97          11.65          50.88          68.33          -12.7         -4.072          49.13          74.36         -86.73          131.7          114.3
    0.1704              -13.97          11.65          50.87          68.33          -12.7         -4.071          49.14          74.35         -86.69          131.7          114.3
    0.2131              -13.97          11.64          50.87          68.33          -12.7         -4.071          49.15          74.35         -86.64          131.7          114.3
    0.2557              -13.97          11.64          50.87          68.33          -12.7          -4.07          49.16          74.34         -86.59          131.7          114.3
    0.2983              -13.97          11.64          50.86          68.33          -12.7         -4.069          49.17          74.33         -86.54          131.7          114.3
    0.3409              -13.97          11.64          50.86          68.34         -12.69         -4.069          49.18          74.32         -86.48          131.7          114.2
    0.3835              -13.97          11.63          50.85          68.34         -12.69         -4.068           49.2          74.32         -86.42          131.7          114.2
    0.4261              -13.97          11.63          50.85          68.34         -12.69         -4.067          49.21          74.31         -86.36          131.6          114.2
    0.4687              -13.97          11.62          50.84          68.34         -12.68         -4.067          49.23           74.3         -86.29          131.6          114.2
    0.5113              -13.97          11.62          50.84          68.34         -12.68         -4.066          49.25          74.29         -86.21          131.6          114.1
     0.554              -13.98          11.62          50.83          68.34         -12.68         -4.065          49.27          74.27         -86.13          131.6          114.1
    0.5966              -13.98          11.61          50.83          68.34         -12.67         -4.064          49.29          74.26         -86.04          131.6          114.1
    0.6392              -13.98          11.61          50.82          68.34         -12.67         -4.063          49.31          74.25         -85.95          131.6          114.0
    0.6818              -13.98           11.6          50.81          68.34         -12.66         -4.062          49.33          74.23         -85.84          131.6          114.0
    0.7244              -13.98          11.59           50.8          68.34         -12.66          -4.06          49.36          74.22         -85.73          131.6          113.9
     0.767              -13.98          11.59          50.79          68.34         -12.65         -4.059          49.39           74.2         -85.61          131.6          113.9
    0.8096              -13.98          11.58          50.78          68.34         -12.65         -4.058          49.42          74.18         -85.47          131.5          113.8
    0.8522              -13.99          11.57          50.77          68.34         -12.64         -4.056          49.46          74.16         -85.32          131.5          113.8
    0.8949              -13.99          11.56          50.76          68.34         -12.63         -4.054          49.49          74.14         -85.16          131.5          113.7
    0.9375              -13.99          11.55          50.75          68.34         -12.62         -4.052          49.54          74.11         -84.98          131.5          113.6
    0.9801              -13.99          11.54          50.73          68.34         -12.61          -4.05          49.58          74.09         -84.78          131.5          113.6
     1.023               -14.0          11.53          50.72          68.34          -12.6         -4.048          49.64          74.06         -84.55          131.4          113.5
     1.065               -14.0          11.52           50.7          68.34         -12.59         -4.045          49.69          74.02          -84.3          131.4          113.4
     1.108              -14.01           11.5          50.68          68.34         -12.58         -4.042          49.76          73.98         -84.03          131.4          113.3
     1.151              -14.01          11.49          50.66          68.34         -12.56         -4.038          49.83          73.94         -83.71          131.3          113.1
     1.193              -14.02          11.47          50.63          68.34         -12.55         -4.034          49.91          73.89         -83.36          131.3          113.0
     1.236              -14.02          11.45           50.6          68.34         -12.53          -4.03          50.01          73.83         -82.96          131.3          112.8
     1.278              -14.03          11.42          50.57          68.34         -12.51         -4.025          50.12          73.77          -82.5          131.2          112.7
     1.321              -14.04          11.39          50.53          68.34         -12.48         -4.019          50.24           73.7         -81.97          131.1          112.4
     1.364              -14.04          11.36          50.49          68.34         -12.46         -4.012          50.38          73.61         -81.36          131.1          112.2
     1.406              -14.05          11.32          50.44          68.35         -12.42         -4.004          50.55          73.51         -80.65          131.0          111.9
     1.449              -14.07          11.28          50.38          68.35         -12.38         -3.995          50.74           73.4         -79.83          130.9          111.6
     1.491              -14.08          11.22          50.31          68.35         -12.34         -3.985          50.97          73.26         -78.85          130.8          111.2
     1.534               -14.1          11.16          50.23          68.35         -12.29         -3.972          51.24           73.1         -77.69          130.6          110.7
     1.577              -14.12          11.09          50.13          68.35         -12.22         -3.956          51.56          72.91         -76.31          130.5          110.2
     1.619              -14.14           11.0          50.01          68.36         -12.14         -3.938          51.95          72.67         -74.63          130.3          109.5
     1.662              -14.17          10.89          49.86          68.36         -12.05         -3.915          52.43          72.39         -72.57          130.0          108.7
     1.704              -14.21          10.75          49.68          68.37         -11.93         -3.887          53.02          72.04         -70.04          129.8          107.7
     1.747              -14.25          10.58          49.45          68.37         -11.78         -3.852          53.76           71.6         -66.88          129.4          106.4
      1.79              -14.31          10.37          49.16          68.38          -11.6         -3.809          54.69          71.04          -62.9          128.9          104.8
     1.832              -14.38          10.09           48.8          68.39         -11.36         -3.753          55.87          70.34         -57.85          128.3          102.8
     1.875              -14.48          9.745          48.33           68.4         -11.06         -3.681          57.38          69.44         -51.37          127.6          100.2
     1.918               -14.6          9.297          47.74          68.42         -10.68         -3.589          59.32          68.28         -43.07          126.6          96.93
      1.96              -14.75          8.726          46.97          68.44         -10.19         -3.472          61.79          66.81         -32.45          125.4           92.7
     2.003              -14.94          8.007          46.02          68.46         -9.568         -3.325          64.91          64.95         -19.11          123.8          87.38
     2.045              -15.18          7.132          44.85          68.49         -8.813         -3.146           68.7          62.69         -2.851          121.9           80.9
     2.088              -15.45          6.117          43.49          68.53         -7.939         -2.937           73.1          60.06           16.0          119.8          73.38
     2.131              -15.75          5.018          42.03          68.57         -6.992         -2.712          77.86          57.23           36.4          117.4          65.24
     2.173              -16.04          3.919          40.56           68.6         -6.045         -2.487          82.63          54.39          56.81          115.0           57.1
     2.216              -16.32          2.904          39.21          68.64         -5.171         -2.279          87.02          51.76          75.66          112.8          49.59
     2.258              -16.55          2.028          38.04          68.67         -4.417         -2.099          90.82           49.5          91.92          110.9          43.11
     2.301              -16.74           1.31          37.08          68.69         -3.798         -1.952          93.93          47.64          105.3          109.4          37.79
     2.344               -16.9         0.7382          36.32          68.71         -3.305         -1.835          96.41          46.17          115.9          108.2          33.55
     2.386              -17.02         0.2909          35.72          68.73          -2.92         -1.743          98.35          45.01          124.2          107.2          30.24
     2.429              -17.11       -0.05774          35.25          68.74          -2.62         -1.672          99.86          44.11          130.7          106.4          27.66
     2.472              -17.18        -0.3301          34.89          68.75         -2.385         -1.616          101.0          43.41          135.7          105.8          25.64
     2.514              -17.24        -0.5443           34.6          68.76           -2.2         -1.572          102.0          42.85          139.7          105.4          24.06
